<svg width="24" height="24" viewBox="0 0 24 24" fill="none" stroke="black" stroke-width="2" xmlns="http://www.w3.org/2000/svg">
	<path d="M10.1438 15C9.53379 15.5288 8.87279 15.9991 8.16921 16.4034C6.67263 17.2635 5.0153 17.807 3.3 18" stroke-linecap="round" stroke-linejoin="round"/>
	<path d="M16.8 14.6C14.8148 18.1137 11.6141 20.781 7.8 22.1" stroke-linecap="round" stroke-linejoin="round"/>
	<path d="M20.7 18C19.8123 16.8236 18.7294 15.8108 17.5 15.0049" stroke-linecap="round" stroke-linejoin="round"/>
	<path d="M7.5243 15C7.7295 15.4415 7.95482 15.8753 8.2 16.3" stroke-linecap="round" stroke-linejoin="round"/>
	<path d="M21.8 15C20.8734 19.5645 16.8379 23 12 23C7.16208 23 3.12658 19.5645 2.20004 15" stroke-linecap="square" stroke-linejoin="round"/>
	<path d="M22 14V12C21.9999 11.4696 21.7891 10.961 21.414 10.586L17.414 6.586C17.039 6.2109 16.5304 6.00011 16 6H8C7.46961 6.00011 6.96099 6.2109 6.586 6.586L2.586 10.586C2.2109 10.961 2.00011 11.4696 2 12V14H22Z" stroke-linecap="round" stroke-linejoin="round"/>
	<path d="M16 6V4C16 3.46957 15.7893 2.96086 15.4142 2.58579C15.0391 2.21071 14.5304 2 14 2H10C9.46957 2 8.96086 2.21071 8.58579 2.58579C8.21071 2.96086 8 3.46957 8 4V6" stroke-linecap="round" stroke-linejoin="round"/>
	<path d="M16 12V14" stroke-linecap="round" stroke-linejoin="round"/>
	<path d="M8 12V14" stroke-linecap="round" stroke-linejoin="round"/>

	<style>
		@media (prefers-color-scheme: dark) { svg { stroke: white; } }
	</style>
</svg>
